<?xml version="1.0" encoding="utf-8"?>
<!-- Generator: Adobe Illustrator 19.1.0, SVG Export Plug-In . SVG Version: 6.00 Build 0)  -->
<svg version="1.1" id="Lockup" xmlns="http://www.w3.org/2000/svg" xmlns:xlink="http://www.w3.org/1999/xlink" x="0px" y="0px"
	 viewBox="3039 -489 6689 1770" style="enable-background:new 3039 -489 6689 1770;" xml:space="preserve">
<style type="text/css">
	.st0{fill:#231F20;}
</style>
<g>
	<g>
		<path class="st0" d="M5420.9,892.8l-49.1,154.4h-25.2l-23-73.7c-6-18.7-10.4-35.6-13.4-50.7h-0.6c-3.4,16.4-8.1,33.4-14,51
			l-24.2,73.4H5246l-45.9-154.4h28.4l20.1,78.2c4.7,17.9,8.5,34.4,11.5,49.5h0.6c2.8-12.8,7.3-29.1,13.7-49.1l24.6-78.5h23.3
			l23.6,77.2c5.3,17.5,9.8,34.3,13.4,50.4h0.6c2.6-14.5,6.5-31.3,11.8-50.4l21.7-77.2H5420.9z"/>
		<path class="st0" d="M5477,846.5c0,5.3-1.7,9.6-5.1,12.9c-3.4,3.3-7.8,4.9-13.1,4.9c-5.1,0-9.3-1.7-12.6-5.1
			c-3.3-3.4-4.9-7.7-4.9-12.8c0-5.1,1.7-9.4,5.1-12.8c3.4-3.4,7.7-5.1,12.8-5.1c5.3,0,9.6,1.6,12.9,4.9
			C5475.4,836.9,5477,841.2,5477,846.5z M5473.2,1047.2h-27.8V892.8h27.8V1047.2z"/>
		<path class="st0" d="M5589,913.9h-39.6v83.9c0,19.8,6.9,29.7,20.7,29.7c6.2,0,11.5-0.6,16-1.9l1.3,21.1
			c-6.4,2.3-14.6,3.5-24.6,3.5c-13,0-23-3.9-30.2-11.7c-7.1-7.8-10.7-21-10.7-39.7v-84.9h-23.6v-21.1h23.6v-28.4l27.4-8.3v36.7h39.6
			V913.9z"/>
		<path class="st0" d="M5745.7,1047.2h-27.8v-89.7c0-30-11.6-45-34.8-45c-8.5,0-16.1,2.6-22.8,7.8c-6.7,5.2-11.4,11.9-14.2,19.9
			c-1.1,3.4-1.6,7.8-1.6,13.1v93.8h-27.8V821h27.8v95.4h0.6c4.9-8.3,11.6-14.8,20.3-19.6c8.6-4.8,17.8-7.2,27.6-7.2
			c13.4,0,24.8,4.3,34.1,12.8c12.3,11.5,18.5,28.9,18.5,52.3V1047.2z"/>
		<path class="st0" d="M5999.3,1047.2h-28.7c-3.2-6-7.9-23.2-14-51.7c-3.2-14.9-8-25.5-14.4-31.9c-6.4-6.4-15.7-9.6-28.1-9.6h-25.2
			v93.2h-27.5V835.1c14.9-3,32.2-4.5,52-4.5c28.1,0,48.6,5.9,61.6,17.5c11.1,10,16.6,23.6,16.6,40.8c0,13.6-3.8,25.3-11.5,35.1
			c-7.2,8.9-16.8,15.5-28.7,19.8v1c15.5,5.3,26.1,19.9,31.6,43.7C5990.5,1021.3,5995.9,1040.9,5999.3,1047.2z M5963.9,892.2
			c0-26.8-16.2-40.2-48.5-40.2c-11.7,0-20.5,0.9-26.5,2.6V933h27.1c14.7,0,26.3-3.7,34.9-11.2
			C5959.6,914.4,5963.9,904.5,5963.9,892.2z"/>
		<path class="st0" d="M6149.9,961.1c0,5.5-0.3,10.1-1,13.7h-105.9c0.4,18.1,5.7,31.8,16,41.2c8.9,8.3,20.9,12.4,36.1,12.4
			c15.3,0,29.1-2.6,41.5-7.7l4.8,19.8c-13.8,6.2-30.6,9.2-50.4,9.2c-23,0-41.1-7-54.4-21.1c-13.3-14-20-32.9-20-56.5
			c0-24,6.4-43.9,19.3-59.5c12.9-15.6,30.2-23.5,51.9-23.5c21.9,0,38.4,8.4,49.5,25.2C6145.7,927.5,6149.9,943,6149.9,961.1z
			 M6123.1,954.7c0.2-11.7-2.2-21.6-7.3-29.7c-6.6-10.4-16.7-15.6-30.3-15.6c-12.8,0-23,5.1-30.6,15.3c-6.2,8.3-10,18.3-11.5,30
			H6123.1z"/>
		<path class="st0" d="M6254.3,913.9h-39.6v83.9c0,19.8,6.9,29.7,20.7,29.7c6.2,0,11.5-0.6,16-1.9l1.3,21.1
			c-6.4,2.3-14.6,3.5-24.6,3.5c-13,0-23-3.9-30.1-11.7c-7.1-7.8-10.7-21-10.7-39.7v-84.9h-23.6v-21.1h23.6v-28.4l27.4-8.3v36.7h39.6
			V913.9z"/>
		<path class="st0" d="M6313.6,846.5c0,5.3-1.7,9.6-5.1,12.9c-3.4,3.3-7.8,4.9-13.1,4.9c-5.1,0-9.3-1.7-12.6-5.1
			c-3.3-3.4-4.9-7.7-4.9-12.8c0-5.1,1.7-9.4,5.1-12.8c3.4-3.4,7.7-5.1,12.8-5.1c5.3,0,9.6,1.6,12.9,4.9
			C6312,836.9,6313.6,841.2,6313.6,846.5z M6309.8,1047.2H6282V892.8h27.8V1047.2z"/>
		<path class="st0" d="M6481.4,1047.2h-27.8v-89.7c0-30.2-11.6-45.3-34.8-45.3c-11.1,0-20.3,4.2-27.6,12.6c-7.4,8.4-11,18.1-11,29.2
			v93.2h-27.8V934.6c0-12.8-0.4-26.7-1.3-41.8h24.6l1.6,24.9h0.6c4.3-7.9,10.4-14.4,18.5-19.5c9.3-5.7,19.9-8.6,31.6-8.6
			c13.6,0,25.1,4.3,34.5,12.8c12.6,11.5,18.8,28.8,18.8,52V1047.2z"/>
		<path class="st0" d="M6632.4,1047.2h-25.2l-2.6-19.1h-0.6c-10.6,14.9-26,22.3-46.3,22.3c-14.5,0-26-4.5-34.5-13.4
			c-7.9-8.3-11.8-18.5-11.8-30.6c0-18.7,7.9-33,23.6-42.9c15.7-9.9,38.2-14.7,67.3-14.5v-3.2c0-23.8-11.5-35.7-34.4-35.7
			c-14.9,0-28,3.7-39.3,11.2l-6.4-18.5c13.6-8.7,30.3-13.1,50.1-13.1c38.3,0,57.4,20.8,57.4,62.5v58.4
			C6629.8,1025.6,6630.7,1037.9,6632.4,1047.2z M6602.7,995.5v-27.1c-42.3-0.8-63.5,10.7-63.5,34.8c0,8.7,2.4,15.4,7.4,19.9
			c4.9,4.6,11,6.9,18.5,6.9c9.2,0,17.1-2.7,23.9-8c5.9-4.7,10.1-10.5,12.4-17.5C6602.3,1001.7,6602.7,998.7,6602.7,995.5z"/>
		<path class="st0" d="M6876.1,1047.2h-24.9l-1.3-26.2h-0.6c-10,19.6-27,29.4-51.1,29.4c-18.7,0-34.2-7.2-46.4-21.7
			c-12.2-14.5-18.3-33.3-18.3-56.5c0-25.1,6.7-45.4,20.1-60.9c12.8-14.5,28.6-21.7,47.5-21.7c21.7,0,36.8,7.7,45.3,23h0.6V821h27.8
			v186.7C6874.9,1021.7,6875.3,1034.9,6876.1,1047.2z M6847.1,983.1v-27.8c0-4.7-0.3-8.6-1-11.8c-2.1-9.1-6.8-16.8-13.9-23
			c-7.1-6.2-15.7-9.3-25.7-9.3c-13.8,0-24.8,5.6-33,16.8c-8.2,11.2-12.3,25.4-12.3,42.6c0,16.6,3.8,30.1,11.5,40.5
			c8.1,11.5,19.1,17.2,33.2,17.2c12.1,0,22.1-4.7,30-14C6843.4,1005.7,6847.1,995.2,6847.1,983.1z"/>
		<path class="st0" d="M6949.2,846.5c0,5.3-1.7,9.6-5.1,12.9c-3.4,3.3-7.8,4.9-13.1,4.9c-5.1,0-9.3-1.7-12.6-5.1
			c-3.3-3.4-5-7.7-5-12.8c0-5.1,1.7-9.4,5.1-12.8c3.4-3.4,7.7-5.1,12.8-5.1c5.3,0,9.6,1.6,12.9,4.9
			C6947.6,836.9,6949.2,841.2,6949.2,846.5z M6945.4,1047.2h-27.8V892.8h27.8V1047.2z"/>
		<path class="st0" d="M7076.8,1004.2c0,13.8-5.1,24.9-15.3,33.3c-10.2,8.4-24.1,12.6-41.8,12.6c-16.4,0-30.5-3.4-42.4-10.2
			l6.7-21.1c11.5,7.2,23.6,10.9,36.4,10.9c19.8,0,29.7-7.7,29.7-23c0-6.6-2.1-12-6.4-16.3c-4.3-4.3-11.5-8.3-21.7-12.1
			c-27-10.2-40.5-24.8-40.5-43.7c0-12.8,4.8-23.5,14.5-32.1c9.7-8.6,22.4-12.9,38.1-12.9c14.7,0,27.1,3.1,37.3,9.2l-7,20.4
			c-9.4-6-19.7-8.9-30.9-8.9c-7.9,0-14,2-18.5,5.9c-4.5,3.9-6.7,9-6.7,15.2c0,6,2.3,10.8,7,14.7c3.8,3.6,11.1,7.4,21.7,11.5
			C7063.5,968,7076.8,983.5,7076.8,1004.2z"/>
		<path class="st0" d="M7249.7,967.8c0,26.4-7,47.1-21,62.2c-12.6,13.6-28.4,20.4-47.5,20.4c-21.3,0-36.7-7.9-46.3-23.6h-0.6v83.3
			h-27.4V942.9c0-16.6-0.4-33.3-1.3-50.1h24.9l1.3,25.8h0.6c11.7-19.4,29.5-29,53.3-29c18.7,0,34.1,7.2,46.1,21.7
			C7243.7,925.8,7249.7,944.6,7249.7,967.8z M7221.7,969.1c0-16.2-3.7-29.6-11.2-40.2c-8.3-11.5-19.4-17.2-33.2-17.2
			c-9.6,0-18.2,3.2-25.8,9.6c-7.7,6.4-12.8,14.6-15.3,24.6c-1.3,4.9-1.9,8.7-1.9,11.5v27.4c0,12.3,3.9,22.8,11.8,31.3
			c7.9,8.5,18,12.8,30.3,12.8c14.3,0,25.4-5.5,33.3-16.4C7217.7,1001.3,7221.7,986.9,7221.7,969.1z"/>
		<path class="st0" d="M7309.4,1047.2h-27.8V821h27.8V1047.2z"/>
		<path class="st0" d="M7461.3,1047.2h-25.2l-2.6-19.1h-0.6c-10.6,14.9-26.1,22.3-46.3,22.3c-14.5,0-26-4.5-34.5-13.4
			c-7.9-8.3-11.8-18.5-11.8-30.6c0-18.7,7.9-33,23.6-42.9c15.7-9.9,38.2-14.7,67.3-14.5v-3.2c0-23.8-11.5-35.7-34.4-35.7
			c-14.9,0-28,3.7-39.3,11.2l-6.4-18.5c13.6-8.7,30.3-13.1,50.1-13.1c38.3,0,57.4,20.8,57.4,62.5v58.4
			C7458.8,1025.6,7459.6,1037.9,7461.3,1047.2z M7431.6,995.5v-27.1c-42.3-0.8-63.5,10.7-63.5,34.8c0,8.7,2.4,15.4,7.4,19.9
			c4.9,4.6,11,6.9,18.5,6.9c9.2,0,17.1-2.7,23.9-8c5.9-4.7,10.1-10.5,12.4-17.5C7431.2,1001.7,7431.6,998.7,7431.6,995.5z"/>
		<path class="st0" d="M7618.9,892.8l-40.8,109.4c-10.4,27.4-19.1,47.9-26.2,61.3c-8.1,15.3-16.7,27.1-25.8,35.4
			c-11.1,10-22.3,16.1-33.8,18.2l-7.3-23.3c8.7-2.8,16.9-7.5,24.6-14c9.6-8.1,17.1-18.4,22.7-30.9c1.5-3,2.2-5.1,2.2-6.4
			c0-1.5-0.6-3.9-1.9-7.3l-55.5-142.3h30l32.9,91.3c3.2,8.5,6.4,18.9,9.6,31.3h1c1.9-6.8,5.1-17.4,9.6-31.9l29.7-90.6H7618.9z"/>
	</g>
	<g>
		<path class="st0" d="M3875.6-67.3c26.2-31.8,44-76.1,39.2-120.2c-37.9,1.5-83.9,25.4-110.9,57.1c-24.5,28.2-45.7,73.3-39.8,116.5
			C3806.3-10.6,3849.3-35.4,3875.6-67.3 M3970.4,212.7c1.1,114.1,100.1,151.8,101.1,152.4c-0.8,2.7-15.7,54.1-51.9,107.1
			c-31.5,45.9-64,91.5-115.4,92.6c-50.3,0.9-66.6-30-124.2-29.9c-57.7,0-75.6,29.1-123.3,30.9c-49.6,1.9-87.3-49.5-119-95.2
			c-64.7-93.4-114.1-264-47.9-379.6c33-57.2,91.9-93.4,155.8-94.4c48.8-1,94.5,32.6,124.3,32.6c29.7,0,85.6-40.4,144.2-34.6
			c24.5,1,93.4,10,137.7,74.5C4048.3,71.3,3969.6,117.3,3970.4,212.7"/>
		<g>
			<path class="st0" d="M4971.4,211.6c-1.4-27.2-3.1-55.5-4.8-84.8c-1.8-29.3-3.4-58.1-4.8-86.4c-1.4-28.3-2.5-55.1-3.2-80.5
				c-0.7-25.4-1.1-48.1-1.1-68.2h-3.2c-12.2,40.1-26,81.8-41.3,125.1c-15.4,43.3-33.1,91.8-53.2,145.5l-149.3,393h-35.4
				l-139.6-383.3c-20.1-56.5-37.6-107.2-52.6-151.9c-15-44.7-27.9-87.5-38.7-128.3h-3.2c-0.7,43-2.3,93.8-4.8,152.5
				c-2.5,58.7-5.9,118.1-10.2,178.3l-22.5,332.9H4354l51.5-723.7h58L4616,246c16.5,46.5,31.1,88.4,44,125.6
				c12.9,37.2,24.3,73.7,34.4,109.5h3.2c9.3-34.4,20.2-69.8,32.8-106.3c12.5-36.5,28.1-79.1,46.7-127.8l156.8-415.6h61.2l48.3,723.7
				h-50.5L4971.4,211.6z"/>
			<path class="st0" d="M5476.1,432.8c0,20.8,0.4,41.5,1.1,62.3c0.7,20.8,2.9,40.8,6.4,60.1h-47.2l-7.5-73h-2.1
				c-6.4,10-14.7,20-24.7,30.1c-10,10-21.7,19.2-34.9,27.4c-13.2,8.2-28.3,14.9-45.1,19.9c-16.8,5-35.3,7.5-55.3,7.5
				c-25.1,0-47.1-4.1-66-12.3c-19-8.2-34.5-18.9-46.7-32.1c-12.2-13.2-21.3-28.4-27.4-45.5c-6.1-17.1-9.1-34.2-9.1-51.4
				c0-59.9,25.8-106.5,77.3-139.7c51.5-33.2,128.5-49.1,230.9-47.6v-14c0-13.7-1.3-29.4-3.8-47c-2.5-17.7-8.1-34.4-16.7-50.3
				s-21.6-29.2-38.8-40c-17.2-10.8-40.6-16.2-70.1-16.2c-22.3,0-44.4,3.4-66.3,10.2c-21.9,6.8-41.9,16.3-59.8,28.5L5154,72
				c22.9-15.7,46.6-27,71.1-33.8c24.4-6.8,49.9-10.2,76.5-10.2c35.9,0,65.2,6.1,87.8,18.3c22.6,12.2,40.4,27.9,53.3,47.2
				c12.9,19.3,21.7,41,26.4,65c4.7,24,7,47.8,7,71.4V432.8z M5425.7,279.3c-27.3-0.7-55.9,0.4-85.7,3.2
				c-29.8,2.9-57.3,9.1-82.5,18.8c-25.2,9.7-46,23.8-62.5,42.4c-16.5,18.6-24.8,43.3-24.8,74.1c0,18.6,2.9,34.5,8.6,47.8
				c5.7,13.3,13.3,24.2,22.6,32.8c9.3,8.6,20.1,15,32.4,19.3c12.2,4.3,24.8,6.4,37.8,6.4c20.8,0,39.5-2.9,56.1-8.6
				c16.5-5.7,30.9-13.4,43.1-23.1c12.2-9.7,22.5-20.6,30.7-32.7c8.3-12.2,14.5-24.7,18.9-37.6c3.6-12.9,5.4-23.3,5.4-31.1V279.3z"/>
			<path class="st0" d="M5938.9,535.6c-10.7,5.6-28.6,12.1-53.7,19.4c-25.1,7.3-55.8,11-92.3,11c-36.5,0-69.6-6.3-99.3-18.8
				c-29.7-12.5-55.1-30.4-76.2-53.6c-21.1-23.2-37.4-50.9-48.9-83.1c-11.5-32.1-17.2-67.9-17.2-107.2c0-40.7,6.4-77.8,19.3-111.4
				c12.9-33.6,30.8-62.3,53.7-86.3c22.9-23.9,50.3-42.7,82.1-56.3c31.8-13.6,66.7-20.4,104.7-20.4c30.8,0,57.8,3.3,81.1,10
				c23.3,6.6,39.9,13.5,49.9,20.4l-18.3,42.6c-12.2-7.1-27.9-14-47.2-20.4c-19.3-6.4-42.9-9.7-70.9-9.7c-33.7,0-63.2,6.3-88.6,18.8
				c-25.4,12.6-46.7,29.2-63.9,50.1c-17.2,20.8-30.1,45-38.7,72.7c-8.6,27.6-12.9,56.5-12.9,86.6c0,33.7,4.8,64.4,14.5,92
				c9.7,27.6,23.4,51.1,41.3,70.5c17.9,19.4,39,34.3,63.4,44.7c24.3,10.4,51.2,15.6,80.5,15.6c30.1,0,54.8-3.2,74.1-9.7
				c19.3-6.4,36.1-12.5,50.5-18.3L5938.9,535.6z"/>
			<path class="st0" d="M6022.7-158.8c20-4.3,42-7.9,66-10.7c24-2.9,49.6-4.3,76.8-4.3c44.4,0,81.6,4.9,111.7,14.5
				c30.1,9.7,54.8,24.6,74.1,44.6c30.1,30.1,45.1,69.9,45.1,119.4c0,37.3-11.7,70.5-35.1,99.5c-23.4,29-53.4,49.7-90.2,61.8v3.2
				c15.7,3.6,32.5,9.7,50.3,18.2c17.8,8.6,34.3,20.4,49.3,35.4c15,15,27.5,33.2,37.5,54.7c10,21.4,15,46.8,15,76.1
				c0,30-4.8,56.5-14.5,79.3c-9.6,22.9-22.7,42.5-39.1,59c-23.6,25-54.3,42.7-92.1,53.1c-37.8,10.4-81.8,15.5-131.7,15.5
				c-27.1,0-50.9-0.7-71.2-2.1c-20.4-1.4-37.7-2.9-51.9-4.3V-158.8z M6073.2,150.4h102c25.8,0,49-3.6,69.8-10.8
				c20.8-7.2,38.5-17.2,53.2-30.2c14.7-12.9,25.9-28,33.8-45.3c7.9-17.2,11.8-35.9,11.8-56c0-25.2-4.5-46.5-13.4-64.1
				c-9-17.6-21.3-32-37-43.1c-15.8-11.1-34.9-19.2-57.5-24.2c-22.5-5-47.1-7.6-73.6-7.6c-22.9,0-41.5,0.7-55.8,2.2
				c-14.3,1.4-25.4,3.2-33.3,5.4V150.4z M6073.2,512.3c10,2.1,22.2,3.6,36.5,4.3c14.3,0.7,30.8,1.1,49.4,1.1c27.9,0,54.6-2.7,80-8.1
				c25.4-5.4,47.8-14.5,67.1-27.4c19.3-12.9,34.9-29.7,46.7-50.5c11.8-20.8,17.7-46.5,17.7-77.3c0-28.6-5.6-53.2-16.6-73.6
				c-11.1-20.4-26.3-37.2-45.6-50.5c-19.3-13.2-41.7-23.1-67.1-29.5c-25.4-6.4-52.1-9.7-80-9.7h-88.1V512.3z"/>
			<path class="st0" d="M6722.3,28c34.3,0,65.7,6.3,94.3,18.8c28.6,12.5,53,30.4,73.4,53.7c20.4,23.3,36.2,51.2,47.7,83.8
				c11.4,32.6,17.2,68.9,17.2,109c0,48-7.2,89.3-21.4,124c-14.3,34.7-33,63.2-56.3,85.4c-23.2,22.2-48.9,38.5-77.1,48.9
				c-28.2,10.4-56.2,15.6-84.1,15.6c-32.1,0-62.3-6.1-90.5-18.3c-28.2-12.2-52.7-29.9-73.4-53.2c-20.7-23.3-37-51.2-48.8-83.8
				c-11.8-32.6-17.7-69.3-17.7-110.1c0-44.4,6.4-83.6,19.3-117.6c12.9-34,30.4-62.6,52.5-85.9c22.1-23.2,47.3-40.8,75.5-52.6
				C6661,33.9,6690.8,28,6722.3,28z M6721.7,71c-32.2,0-60,6.8-83.2,20.4c-23.3,13.6-42.6,31.1-58,52.6
				c-15.4,21.5-26.7,45.8-33.8,73c-7.2,27.2-10.7,54.4-10.7,81.6c0,32.2,4.5,62.1,13.4,89.7c8.9,27.6,21.5,51.4,37.6,71.4
				c16.1,20,35.3,35.8,57.5,47.2c22.2,11.5,46.9,17.2,74.1,17.2c26.5,0,51.2-5.7,74.1-17.2c22.9-11.4,42.6-27.2,59.1-47.2
				c16.5-20,29.3-44,38.7-71.9c9.3-27.9,14-58.7,14-92.3c0-23.6-3.4-48.5-10.2-74.6c-6.8-26.1-17.4-50.3-31.7-72.5
				c-14.3-22.2-33.1-40.6-56.4-55.3C6782.7,78.3,6754.6,71,6721.7,71z"/>
			<path class="st0" d="M7254.9,28c34.3,0,65.7,6.3,94.3,18.8c28.6,12.5,53,30.4,73.4,53.7c20.4,23.3,36.2,51.2,47.7,83.8
				c11.4,32.6,17.2,68.9,17.2,109c0,48-7.2,89.3-21.4,124c-14.3,34.7-33,63.2-56.3,85.4c-23.2,22.2-48.9,38.5-77.1,48.9
				c-28.2,10.4-56.2,15.6-84.1,15.6c-32.1,0-62.3-6.1-90.5-18.3c-28.2-12.2-52.7-29.9-73.4-53.2c-20.7-23.3-37-51.2-48.8-83.8
				c-11.8-32.6-17.7-69.3-17.7-110.1c0-44.4,6.4-83.6,19.3-117.6c12.9-34,30.3-62.6,52.5-85.9c22.2-23.2,47.3-40.8,75.5-52.6
				C7193.6,33.9,7223.4,28,7254.9,28z M7254.3,71c-32.2,0-60,6.8-83.2,20.4c-23.3,13.6-42.6,31.1-58,52.6
				c-15.4,21.5-26.7,45.8-33.8,73c-7.2,27.2-10.7,54.4-10.7,81.6c0,32.2,4.5,62.1,13.4,89.7c8.9,27.6,21.5,51.4,37.6,71.4
				c16.1,20,35.3,35.8,57.5,47.2c22.2,11.5,46.9,17.2,74.1,17.2c26.5,0,51.2-5.7,74.1-17.2c22.9-11.4,42.6-27.2,59.1-47.2
				c16.5-20,29.3-44,38.7-71.9c9.3-27.9,14-58.7,14-92.3c0-23.6-3.4-48.5-10.2-74.6c-6.8-26.1-17.4-50.3-31.7-72.5
				c-14.3-22.2-33.1-40.6-56.4-55.3C7315.3,78.3,7287.2,71,7254.3,71z"/>
			<path class="st0" d="M7603.3,287.9h2.2c6.4-7.9,14.1-17.2,23.1-27.9c8.9-10.7,17.3-20,25.2-27.9L7832,39.8h62.3l-204,213.7
				l231.9,301.7h-62.3l-205.1-269.5l-51.5,54.8v214.8h-50.5v-761.3h50.5V287.9z"/>
			<path class="st0" d="M8192.8-159.9c20.8-3.6,43.7-6.8,68.7-9.7c25.1-2.9,52.6-4.3,82.7-4.3c43,0,80,5.2,111.1,15.6
				c31.1,10.4,56.7,25.2,76.8,44.6c16.8,17.2,30,37.6,39.5,61.2c9.5,23.6,14.2,50.8,14.2,81.6c0,37.2-6.6,69.8-19.8,97.7
				c-13.2,27.9-31.2,51.4-54.1,70.3c-22.8,19-49.9,33.1-81.3,42.4c-31.4,9.3-65.7,14-102.8,14c-32.1,0-60.3-2.5-84.6-7.5v309.3
				h-50.5V-159.9z M8243.3,200.9c12.2,3.6,25.8,6.1,40.8,7.5c15,1.4,31.2,2.1,48.3,2.1c63.7,0,113.5-15,149.3-45.1
				c35.8-30.1,53.7-74.1,53.7-132.1c0-27.9-4.7-52.3-14-73c-9.3-20.8-22.6-37.8-39.7-51c-17.2-13.2-37.6-23.3-61.2-30.1
				c-23.6-6.8-49.8-10.2-78.4-10.2c-22.9,0-42.6,0.9-59.1,2.7c-16.5,1.8-29.7,3.8-39.7,5.9V200.9z"/>
			<path class="st0" d="M8668.5,192.3c0-25-0.4-50.6-1.1-76.8c-0.7-26.1-1.8-51.4-3.2-75.7h48.3v103.1h3.2
				c11.4-32.2,29.7-59.4,54.8-81.6c25-22.2,55.1-33.3,90.2-33.3c5.7,0,12.2,0.7,19.3,2.2v49.4c-4.3-0.7-8.2-1.1-11.8-1.1
				c-3.6,0-7.9,0-12.9,0c-35.1,0-64.4,13.6-88,40.8c-23.6,27.2-38.7,61.2-45.1,102c-1.4,7.9-2.5,15.9-3.2,24.2
				c-0.7,8.2-1.1,16.3-1.1,24.2v285.6h-50.5L8668.5,192.3z"/>
			<path class="st0" d="M9125.4,28c34.3,0,65.7,6.3,94.3,18.8c28.6,12.5,53,30.4,73.4,53.7c20.4,23.3,36.2,51.2,47.7,83.8
				c11.4,32.6,17.2,68.9,17.2,109c0,48-7.2,89.3-21.4,124c-14.3,34.7-33,63.2-56.3,85.4c-23.2,22.2-48.9,38.5-77.1,48.9
				c-28.2,10.4-56.2,15.6-84.1,15.6c-32.1,0-62.3-6.1-90.5-18.3c-28.2-12.2-52.7-29.9-73.4-53.2c-20.7-23.3-37-51.2-48.8-83.8
				c-11.8-32.6-17.7-69.3-17.7-110.1c0-44.4,6.4-83.6,19.3-117.6c12.8-34,30.3-62.6,52.5-85.9c22.1-23.2,47.3-40.8,75.5-52.6
				C9064.1,33.9,9093.9,28,9125.4,28z M9124.8,71c-32.2,0-60,6.8-83.2,20.4c-23.3,13.6-42.6,31.1-58,52.6
				c-15.4,21.5-26.7,45.8-33.8,73c-7.2,27.2-10.7,54.4-10.7,81.6c0,32.2,4.5,62.1,13.4,89.7c8.9,27.6,21.5,51.4,37.6,71.4
				c16.1,20,35.3,35.8,57.5,47.2c22.2,11.5,46.9,17.2,74.1,17.2c26.5,0,51.2-5.7,74.1-17.2c22.9-11.4,42.6-27.2,59.1-47.2
				c16.5-20,29.3-44,38.7-71.9c9.3-27.9,14-58.7,14-92.3c0-23.6-3.4-48.5-10.2-74.6c-6.8-26.1-17.4-50.3-31.7-72.5
				c-14.3-22.2-33.1-40.6-56.4-55.3C9185.9,78.3,9157.7,71,9124.8,71z"/>
		</g>
	</g>
</g>
</svg>
